<?xml version="1.0" encoding="UTF-8"?>
<svg width="714px" height="525px" viewBox="0 0 714 525" version="1.1" xmlns="http://www.w3.org/2000/svg" xmlns:xlink="http://www.w3.org/1999/xlink">
    <title>Group 381</title>
    <defs>
        <path d="M6.07068063,0.325155634 C2.74511188,0.325155634 0.0498960051,3.01953991 0.0498960051,6.34594025 L0.0498960051,6.34594025 L0.0498960051,460.911853 L644.433518,460.911853 L644.433518,6.34594025 C644.433518,3.01953991 641.738302,0.325155634 638.413565,0.325155634 L638.413565,0.325155634 L6.07068063,0.325155634 Z" id="path-1"></path>
        <path d="M0.440748045,14.9438535 C0.440748045,22.8914556 6.88315391,29.334693 14.8299243,29.334693 L14.8299243,29.334693 C22.7783579,29.334693 29.2215954,22.8914556 29.2215954,14.9438535 L29.2215954,14.9438535 C29.2215954,6.99708312 22.7783579,0.553845657 14.8299243,0.553845657 L14.8299243,0.553845657 C6.88315391,0.553845657 0.440748045,6.99708312 0.440748045,14.9438535" id="path-3"></path>
        <path d="M22.4997719,0.705196873 L0.0557172057,10.0848142 C4.00165961,12.4789909 1.75800258,23.2407276 5.32140895,24.8981066 L5.32140895,24.8981066 L28.3899953,16.2536237 C32.7608854,14.7658911 35.0827128,10.0016542 33.5625479,5.64240658 L33.5625479,5.64240658 C32.3600541,2.19292943 29.1301194,0.0590436061 25.703927,0.0590436061 L25.703927,0.0590436061 C24.6361525,0.0590436061 23.5500828,0.266112027 22.4997719,0.705196873" id="path-5"></path>
        <path d="M1.57006096,0.575467259 C0.739292476,0.575467259 0.068191207,1.24740013 0.068191207,2.07816861 L0.068191207,2.07816861 C0.068191207,2.9081055 0.739292476,3.57920677 1.57006096,3.57920677 L1.57006096,3.57920677 L69.9641784,3.57920677 C70.7941153,3.57920677 71.4652166,2.9081055 71.4652166,2.07816861 L71.4652166,2.07816861 C71.4652166,1.24740013 70.7941153,0.575467259 69.9641784,0.575467259 L69.9641784,0.575467259 L1.57006096,0.575467259 Z" id="path-7"></path>
        <path d="M0.567982859,23.1999792 C0.567982859,36.0132733 10.9546679,46.3999584 23.767962,46.3999584 L23.767962,46.3999584 C36.5804246,46.3999584 46.9679412,36.0132733 46.9679412,23.1999792 L46.9679412,23.1999792 C46.9679412,10.3866851 36.5804246,-0.000831600086 23.767962,-0.000831600086 L23.767962,-0.000831600086 C10.9546679,-0.000831600086 0.567982859,10.3866851 0.567982859,23.1999792" id="path-9"></path>
        <path d="M0.116424012,35.4220056 C0.116424012,47.7604561 6.46818547,58.6086792 16.0748297,64.8955759 L16.0748297,64.8955759 L16.0748297,81.4128168 L54.5704292,81.4128168 L54.5704292,64.8964075 C64.1770734,58.6086792 70.5288349,47.7604561 70.5288349,35.4220056 L70.5288349,35.4220056 C70.5288349,15.9791956 54.7666868,0.217047622 35.3222136,0.217047622 L35.3222136,0.217047622 C15.8794036,0.217047622 0.116424012,15.9791956 0.116424012,35.4220056" id="path-11"></path>
    </defs>
    <g id="Resident" stroke="none" stroke-width="1" fill="none" fill-rule="evenodd">
        <g id="01--SLA-login01" transform="translate(-668.000000, -496.000000)">
            <g id="Group-11" transform="translate(611.000000, 0.000000)">
                <g id="Group-381" transform="translate(57.000000, 496.000000)">
                    <g id="Group-84" transform="translate(68.184824, 62.131616)">
                        <mask id="mask-2" fill="white">
                            <use xlink:href="#path-1"></use>
                        </mask>
                        <g id="Clip-83"></g>
                        <path d="M6.07068063,0.325155634 C2.74511188,0.325155634 0.0498960051,3.01953991 0.0498960051,6.34594025 L0.0498960051,6.34594025 L0.0498960051,460.911853 L644.433518,460.911853 L644.433518,6.34594025 C644.433518,3.01953991 641.738302,0.325155634 638.413565,0.325155634 L638.413565,0.325155634 L6.07068063,0.325155634 Z" id="Fill-82" fill="#E3EFFC" mask="url(#mask-2)"></path>
                    </g>
                    <g id="Group-151" transform="translate(67.472008, 62.408801)">
                        <path d="M645.146583,81.3298101 L0.762961258,81.3298101 L0.762961258,14.3094959 C0.762961258,13.8188519 3.45817714,13.4221787 6.78374588,13.4221787 L639.12663,13.4221787 C642.451367,13.4221787 645.146583,13.8188519 645.146583,14.3094959 L645.146583,81.3298101 Z" id="Fill-85" fill="#1A3655"></path>
                        <path d="M645.383622,38.374186 L645.383622,7.09354873 C645.383622,3.17671233 642.208572,0 638.291736,0 L8.09354873,0 C4.17588073,0 1,3.17671233 1,7.09438033 L1,38.374186 L645.383622,38.374186 Z" id="Fill-87" fill="#28486C"></path>
                        <path d="M25.5472915,18.1452513 C25.5472915,20.7573072 23.4317009,22.870403 20.8229714,22.870403 C18.2117471,22.870403 16.0978197,20.7573072 16.0978197,18.1452513 C16.0978197,15.5356903 18.2117471,13.4217629 20.8229714,13.4217629 C23.4317009,13.4217629 25.5472915,15.5356903 25.5472915,18.1452513" id="Fill-89" fill="#FFFFFF"></path>
                        <path d="M41.2924749,18.1452513 C41.2924749,20.7573072 39.1777158,22.870403 36.5673232,22.870403 C33.9569305,22.870403 31.8421715,20.7573072 31.8421715,18.1452513 C31.8421715,15.5356903 33.9569305,13.4217629 36.5673232,13.4217629 C39.1777158,13.4217629 41.2924749,15.5356903 41.2924749,18.1452513" id="Fill-91" fill="#FFFFFF"></path>
                        <path d="M57.0368266,18.1452513 C57.0368266,20.7573072 54.9220676,22.870403 52.311675,22.870403 C49.7021139,22.870403 47.5881865,20.7573072 47.5881865,18.1452513 C47.5881865,15.5356903 49.7021139,13.4217629 52.311675,13.4217629 C54.9220676,13.4217629 57.0368266,15.5356903 57.0368266,18.1452513" id="Fill-93" fill="#FFFFFF"></path>
                        <polygon id="Fill-95" fill="#D1E1FC" points="87.5551495 65.6371006 488.788885 65.6371006 488.788885 51.6512504 87.5551495 51.6512504"></polygon>
                        <path d="M33.5947519,53.0684633 L19.1897752,53.0684633 C18.1211691,53.0684633 17.2538102,52.201936 17.2538102,51.1324983 C17.2538102,50.0638922 18.1211691,49.1973649 19.1897752,49.1973649 L33.5947519,49.1973649 C34.663358,49.1973649 35.5298853,50.0638922 35.5298853,51.1324983 C35.5298853,52.201936 34.663358,53.0684633 33.5947519,53.0684633" id="Fill-97" fill="#EDF5FC"></path>
                        <path d="M33.5947519,60.5162736 L19.1897752,60.5162736 C18.1211691,60.5162736 17.2538102,59.6497463 17.2538102,58.5803086 C17.2538102,57.5117025 18.1211691,56.6451752 19.1897752,56.6451752 L33.5947519,56.6451752 C34.663358,56.6451752 35.5298853,57.5117025 35.5298853,58.5803086 C35.5298853,59.6497463 34.663358,60.5162736 33.5947519,60.5162736" id="Fill-98" fill="#EDF5FC"></path>
                        <path d="M33.5947519,67.9641672 L19.1897752,67.9641672 C18.1211691,67.9641672 17.2538102,67.0968083 17.2538102,66.0282022 C17.2538102,64.9587644 18.1211691,64.0922372 19.1897752,64.0922372 L33.5947519,64.0922372 C34.663358,64.0922372 35.5298853,64.9587644 35.5298853,66.0282022 C35.5298853,67.0968083 34.663358,67.9641672 33.5947519,67.9641672" id="Fill-99" fill="#EDF5FC"></path>
                        <polygon id="Fill-102" fill="#F4FAFF" points="502.904465 431.543092 625.654459 431.543092 625.654459 107.543092 502.904465 107.543092"></polygon>
                        <g id="Group-7" transform="translate(24.503231, 124.995059)" fill="#9FC2E7">
                            <path d="M157.833227,235.416614 C157.833227,246.693111 148.692279,255.833227 137.416614,255.833227 C126.14178,255.833227 117,246.693111 117,235.416614 C117,224.140948 126.14178,215 137.416614,215 C148.692279,215 157.833227,224.140948 157.833227,235.416614" id="Fill-100"></path>
                            <polygon id="Fill-103" points="16.6660973 31.4835405 101.363734 31.4835405 101.363734 23.3812608 16.6660973 23.3812608"></polygon>
                            <polygon id="Fill-104" points="0.920581295 31.4835405 8.79333931 31.4835405 8.79333931 23.3812608 0.920581295 23.3812608"></polygon>
                            <polygon id="Fill-105" points="16.6660973 49.7379939 101.363734 49.7379939 101.363734 41.6365459 16.6660973 41.6365459"></polygon>
                            <polygon id="Fill-106" points="0.920581295 49.7379939 8.79333931 49.7379939 8.79333931 41.6365459 0.920581295 41.6365459"></polygon>
                            <polygon id="Fill-107" points="16.6660973 67.9941106 101.363734 67.9941106 101.363734 59.891831 16.6660973 59.891831"></polygon>
                            <polygon id="Fill-108" points="0.460706447 12.0382357 67.0843473 12.0382357 67.0843473 0.192092444 0.460706447 0.192092444"></polygon>
                            <polygon id="Fill-109" points="0.460706447 107.313826 67.0843473 107.313826 67.0843473 95.4676827 0.460706447 95.4676827"></polygon>
                            <polygon id="Fill-110" points="0 307 100.442322 307 100.442322 215 0 215"></polygon>
                            <polygon id="Fill-111" points="0.920581295 67.9941106 8.79333931 67.9941106 8.79333931 59.891831 0.920581295 59.891831"></polygon>
                            <polygon id="Fill-112" points="16.6660973 129.78366 101.363734 129.78366 101.363734 121.681381 16.6660973 121.681381"></polygon>
                            <polygon id="Fill-113" points="169.125004 232.065485 295.847552 232.065485 295.847552 223.963205 169.125004 223.963205"></polygon>
                            <polygon id="Fill-114" points="169.125004 246.231789 464.285654 246.231789 464.285654 238.130341 169.125004 238.130341"></polygon>
                            <polygon id="Fill-115" points="117.142514 305.895758 464.285654 305.895758 464.285654 297.793479 117.142514 297.793479"></polygon>
                            <polygon id="Fill-115-Copy" points="117.142514 291.893479 464.285654 291.893479 464.285654 283.791199 117.142514 283.791199"></polygon>
                            <polygon id="Fill-115-Copy-2" points="117.142514 277.891199 464.285654 277.891199 464.285654 269.788919 117.142514 269.788919"></polygon>
                            <polygon id="Fill-117" points="0.920581295 129.78366 8.79333931 129.78366 8.79333931 121.681381 0.920581295 121.681381"></polygon>
                            <polygon id="Fill-118" points="16.6660973 148.038945 101.363734 148.038945 101.363734 139.936666 16.6660973 139.936666"></polygon>
                            <polygon id="Fill-119" points="0.920581295 148.038945 8.79333931 148.038945 8.79333931 139.936666 0.920581295 139.936666"></polygon>
                            <polygon id="Fill-120" points="16.6660973 166.29423 101.363734 166.29423 101.363734 158.192782 16.6660973 158.192782"></polygon>
                            <polygon id="Fill-121" points="0.920581295 166.29423 8.79333931 166.29423 8.79333931 158.192782 0.920581295 158.192782"></polygon>
                            <polygon id="Fill-122" points="16.2053909 183.938289 100.903028 183.938289 100.903028 175.836841 16.2053909 175.836841"></polygon>
                            <polygon id="Fill-123" points="0.460706447 183.938289 8.33346446 183.938289 8.33346446 175.836841 0.460706447 175.836841"></polygon>
                            <polygon id="Fill-124" points="15.7446844 201.582348 100.442322 201.582348 100.442322 193.480069 15.7446844 193.480069"></polygon>
                            <polygon id="Fill-125" points="4.54747351e-13 201.582348 7.87275801 201.582348 7.87275801 193.480069 4.54747351e-13 193.480069"></polygon>
                            <path d="M509.742412,15.7859701 C509.742412,21.9356527 504.757801,26.9202636 498.608118,26.9202636 C492.459267,26.9202636 487.474656,21.9356527 487.474656,15.7859701 C487.474656,9.63628746 492.459267,4.65167655 498.608118,4.65167655 C504.757801,4.65167655 509.742412,9.63628746 509.742412,15.7859701" id="Fill-126"></path>
                            <polygon id="Fill-127" points="516.712218 15.7862196 554.898463 15.7862196 554.898463 9.73716056 516.712218 9.73716056"></polygon>
                            <polygon id="Fill-130" points="516.712218 26.9196815 584.388665 26.9196815 584.388665 20.8714541 516.712218 20.8714541"></polygon>
                            <path d="M509.617339,74.4803041 C509.617339,80.6299868 504.631897,85.6145977 498.482214,85.6145977 C492.333363,85.6145977 487.348752,80.6299868 487.348752,74.4803041 C487.348752,68.3306215 492.333363,63.3460106 498.482214,63.3460106 C504.631897,63.3460106 509.617339,68.3306215 509.617339,74.4803041" id="Fill-131"></path>
                            <polygon id="Fill-132" points="516.586647 74.4805536 554.77206 74.4805536 554.77206 68.4314946 516.586647 68.4314946"></polygon>
                            <polygon id="Fill-133" points="516.586647 85.6140156 584.262262 85.6140156 584.262262 79.5649566 516.586647 79.5649566"></polygon>
                            <path d="M509.490686,133.174721 C509.490686,139.323572 504.506076,144.309015 498.356393,144.309015 C492.207542,144.309015 487.222931,139.323572 487.222931,133.174721 C487.222931,127.025039 492.207542,122.039596 498.356393,122.039596 C504.506076,122.039596 509.490686,127.025039 509.490686,133.174721" id="Fill-134"></path>
                            <polygon id="Fill-135" points="516.460244 133.174888 554.646488 133.174888 554.646488 127.125829 516.460244 127.125829"></polygon>
                            <polygon id="Fill-136" points="516.460244 144.30835 584.13669 144.30835 584.13669 138.259291 516.460244 138.259291"></polygon>
                            <path d="M509.364782,191.869139 C509.364782,198.01799 504.380171,203.003432 498.230489,203.003432 C492.080806,203.003432 487.096195,198.01799 487.096195,191.869139 C487.096195,185.719456 492.080806,180.734013 498.230489,180.734013 C504.380171,180.734013 509.364782,185.719456 509.364782,191.869139" id="Fill-137"></path>
                            <polygon id="Fill-138" points="516.33384 191.869222 554.520085 191.869222 554.520085 185.819331 516.33384 185.819331"></polygon>
                            <polygon id="Fill-139" points="516.33384 203.003515 584.010287 203.003515 584.010287 196.954456 516.33384 196.954456"></polygon>
                            <path d="M509.238878,250.562724 C509.238878,256.712407 504.253435,261.697018 498.104584,261.697018 C491.955733,261.697018 486.970291,256.712407 486.970291,250.562724 C486.970291,244.413042 491.955733,239.428431 498.104584,239.428431 C504.253435,239.428431 509.238878,244.413042 509.238878,250.562724" id="Fill-140"></path>
                            <polygon id="Fill-141" points="516.208269 250.562724 554.394513 250.562724 554.394513 244.513665 516.208269 244.513665"></polygon>
                            <polygon id="Fill-142" points="516.208269 261.697849 583.884715 261.697849 583.884715 255.64879 516.208269 255.64879"></polygon>
                        </g>
                        <polygon id="Fill-101" fill="#F4FAFF" points="141.645745 326.543092 488.788885 326.543092 488.788885 107.543092 141.645745 107.543092"></polygon>
                        <path d="M361.659737,114.150819 C362.598788,109.160207 367.767657,106.341717 372.415301,108.13233 C375.94583,109.493252 378.096098,113.312851 377.396246,117.031579 C376.457477,122.022191 371.288326,124.840681 366.640965,123.050068 C363.110153,121.689709 360.959886,117.869265 361.659737,114.150819 M383.67014,119.883823 L387.957764,119.880274 C388.825715,119.879182 389.528538,119.17546 389.527992,118.307408 L389.523898,112.837862 C389.523079,111.970083 388.818892,111.266906 387.950668,111.267725 L384.595136,111.270182 C384.039429,111.270728 383.561783,110.912042 383.366084,110.39203 C383.248174,110.078931 383.119346,109.76938 382.980965,109.464743 C382.749784,108.958925 382.832758,108.366303 383.225793,107.972949 L385.598466,105.598636 C386.212036,104.984176 386.211763,103.988919 385.597647,103.375277 L381.729532,99.5097163 C381.115416,98.8960745 380.120547,98.8968934 379.506704,99.5105352 L377.116563,101.903137 C376.740178,102.279566 376.174372,102.387117 375.685262,102.177475 C375.343814,102.031434 374.975344,101.884029 374.657914,101.7601 C374.16007,101.565744 373.83609,101.086677 373.83609,100.552743 L373.83609,97.1629734 C373.83609,96.2951944 373.132449,95.5911989 372.264225,95.5911989 L366.795859,95.5911989 C365.927908,95.5911989 365.224267,96.2951944 365.224267,97.1629734 L365.224267,100.519441 C365.224267,101.074393 364.865623,101.551003 364.345944,101.746724 C364.017324,101.870381 363.693343,102.006321 363.374003,102.152361 C362.869063,102.385206 362.276782,102.303042 361.88211,101.911327 L359.501249,99.5435648 C358.885767,98.931288 357.89008,98.9342906 357.278693,99.5495702 L353.422588,103.428234 C352.810928,104.043513 352.813658,105.039043 353.429684,105.650774 L355.828287,108.036006 C356.205764,108.411889 356.314121,108.977488 356.10614,109.467473 C355.961209,109.808688 355.814367,110.176928 355.691543,110.495214 C355.498574,110.993115 355.020109,111.318771 354.486238,111.319317 L351.095769,111.327779 C350.227818,111.329963 349.525542,112.035596 349.527992,112.903648 L349.5411,118.372648 C349.543283,119.2407 350.248289,119.942785 351.116786,119.940874 L354.473409,119.931866 C355.029117,119.931047 355.506763,120.289187 355.703826,120.808653 C355.822282,121.121752 355.95111,121.430757 356.09031,121.734848 C356.321763,122.240393 356.239881,122.832743 355.847392,123.226915 L353.477995,125.606141 C352.866062,126.221148 352.8677,127.216132 353.482635,127.828955 L357.3573,131.688237 C357.972235,132.300787 358.967377,132.298876 359.580128,131.683597 L361.966994,129.286354 C362.342833,128.909379 362.908366,128.801555 363.398295,129.009833 C363.739197,129.155327 364.107667,129.302459 364.42537,129.42557 C364.923487,129.618834 365.248286,130.0979 365.248832,130.632107 L365.254564,134.02215 C365.256201,134.890475 365.960661,135.593106 366.828885,135.591199 L372.296978,135.58246 C373.164929,135.581368 373.867478,134.876008 373.866113,134.008229 L373.860654,130.651488 C373.859836,130.096263 374.21848,129.618288 374.737885,129.421748 C375.051494,129.303551 375.36019,129.174981 375.664246,129.035765 C376.170278,128.804285 376.762832,128.886995 377.156139,129.280075 L379.532906,131.65084 C380.147569,132.264209 381.142983,132.263117 381.755462,131.64811 L385.617844,127.776544 C386.230323,127.162083 386.229504,126.166553 385.614842,125.553731 L383.220607,123.164677 C382.843676,122.788521 382.735864,122.223195 382.944937,121.733483 C383.293755,120.915385 383.652672,119.941693 383.67014,119.883823" id="Fill-145" fill="#4379B3"></path>
                    </g>
                    <g id="Group-159" transform="translate(157.000000, 33.000000)">
                        <g id="Group-10">
                            <path d="M25.7347644,51.4695287 C39.946844,51.4695287 51.4673333,39.9479417 51.4673333,25.7347644 C51.4673333,11.5226848 39.946844,-3.51718662e-14 25.7347644,-3.51718662e-14 C11.521587,-3.51718662e-14 1.64135376e-13,11.5226848 1.64135376e-13,25.7347644 C1.64135376e-13,39.9479417 11.521587,51.4695287 25.7347644,51.4695287 Z" id="Fill-157" fill="#4379B3"></path>
                            <g id="Group-168" transform="translate(13.571146, 18.893862)">
                                <path d="M8.0476021,5.60089323 C7.58747777,5.60089323 7.21608516,5.22858586 7.21608516,4.76846152 C7.21608516,3.35698667 6.0662317,2.20804796 4.65475684,2.20804796 C3.24328198,2.20804796 2.09434328,3.35698667 2.09434328,4.76846152 C2.09434328,5.22858586 1.72295067,5.60089323 1.26282634,5.60089323 C0.802702,5.60089323 0.430394634,5.22858586 0.430394634,4.76846152 C0.430394634,2.43856751 2.32577759,0.544099316 4.65475684,0.544099316 C6.98465085,0.544099316 8.88003381,2.43856751 8.88003381,4.76846152 C8.88003381,5.22858586 8.50772644,5.60089323 8.0476021,5.60089323" id="Fill-160" fill="#FFFFFF"></path>
                                <path d="M23.2358217,5.60089323 C22.7756973,5.60089323 22.4043047,5.22858586 22.4043047,4.76846152 C22.4043047,3.35698667 21.255366,2.20804796 19.8438912,2.20804796 C18.4324163,2.20804796 17.2834776,3.35698667 17.2834776,4.76846152 C17.2834776,5.22858586 16.9111702,5.60089323 16.4510459,5.60089323 C15.9909216,5.60089323 15.6186142,5.22858586 15.6186142,4.76846152 C15.6186142,2.43856751 17.5139971,0.544099316 19.8438912,0.544099316 C22.1728704,0.544099316 24.0682534,2.43856751 24.0682534,4.76846152 C24.0682534,5.22858586 23.695946,5.60089323 23.2358217,5.60089323" id="Fill-162" fill="#FFFFFF"></path>
                                <path d="M21.836879,12.2382097 C21.836879,17.5328412 17.5448246,21.8248957 12.250193,21.8248957 C6.95373196,21.8248957 2.6616775,17.5328412 2.6616775,12.2382097 L21.836879,12.2382097 Z" id="Fill-164" fill="#FFFFFF"></path>
                                <path d="M3.56930249,16.2537321 C5.09054856,19.5358914 8.39283257,21.825536 12.2494612,21.825536 C16.1051751,21.825536 19.4065443,19.5358914 20.9296199,16.2537321 L3.56930249,16.2537321 Z" id="Fill-166" fill="#FF5722"></path>
                            </g>
                        </g>
                    </g>
                    <g id="Group-171" transform="translate(420.028473, 0.566027)">
                        <path d="M123.572972,192.953412 C123.572972,203.720139 132.301447,212.447782 143.068173,212.447782 L143.068173,212.447782 C153.8349,212.447782 162.563374,203.720139 162.563374,192.953412 L162.563374,192.953412 C162.563374,182.185855 153.8349,173.45738 143.068173,173.45738 L143.068173,173.45738 C132.301447,173.45738 123.572972,182.185855 123.572972,192.953412" id="Clip-170"></path>
                        <g id="Group-8">
                            <path d="M-8.10018751e-14,23.3952398 C-8.10018751e-14,36.3153119 10.4741698,46.7884838 23.3942419,46.7884838 L23.3942419,46.7884838 C36.314314,46.7884838 46.7884838,36.3153119 46.7884838,23.3952398 L46.7884838,23.3952398 C46.7884838,10.4741698 36.314314,-5.1159079e-14 23.3942419,-5.1159079e-14 L23.3942419,-5.1159079e-14 C10.4741698,-5.1159079e-14 -8.10018751e-14,10.4741698 -8.10018751e-14,23.3952398" id="Fill-169" fill="#4379B3"></path>
                            <path d="M18.8113934,22.2023261 C18.3084417,22.2023261 17.9032861,21.7961726 17.9032861,21.2942188 C17.9032861,19.754428 16.6489005,18.5000424 15.1091097,18.5000424 C13.5693189,18.5000424 12.3159312,19.754428 12.3159312,21.2942188 C12.3159312,21.7961726 11.9107757,22.2023261 11.4088218,22.2023261 C10.906868,22.2023261 10.5017124,21.7961726 10.5017124,21.2942188 C10.5017124,18.7525161 12.568405,16.6848256 15.1091097,16.6848256 C17.6508123,16.6848256 19.7185028,18.7525161 19.7185028,21.2942188 C19.7185028,21.7961726 19.3123493,22.2023261 18.8113934,22.2023261" id="Fill-172" fill="#FFFFFF"></path>
                            <path d="M35.3794624,22.2023261 C34.8775086,22.2023261 34.472353,21.7961726 34.472353,21.2942188 C34.472353,19.754428 33.2189653,18.5000424 31.6791745,18.5000424 C30.1393837,18.5000424 28.885996,19.754428 28.885996,21.2942188 C28.885996,21.7961726 28.4798425,22.2023261 27.9778887,22.2023261 C27.4759349,22.2023261 27.0697814,21.7961726 27.0697814,21.2942188 C27.0697814,18.7525161 29.1374719,16.6848256 31.6791745,16.6848256 C34.2198792,16.6848256 36.2875697,18.7525161 36.2875697,21.2942188 C36.2875697,21.7961726 35.8814162,22.2023261 35.3794624,22.2023261" id="Fill-174" fill="#FFFFFF"></path>
                            <path d="M33.8533431,29.4420371 C33.8533431,35.2189968 29.1711018,39.9012381 23.39514,39.9012381 C17.6171824,39.9012381 12.9349411,35.2189968 12.9349411,29.4420371 L33.8533431,29.4420371 Z" id="Fill-176" fill="#FFFFFF"></path>
                            <path d="M13.9250775,33.8226072 C15.5846187,37.4041426 19.1871104,39.9019367 23.3943417,39.9019367 C27.6005751,39.9019367 31.2020689,37.4041426 32.8636059,33.8226072 L13.9250775,33.8226072 Z" id="Fill-178" fill="#FF5722"></path>
                        </g>
                    </g>
                    <g id="Group-196" transform="translate(229.523632, 39.680422)">
                        <path d="M54.2328906,138.909052 C54.2328906,153.641679 42.2902817,165.58512 27.556823,165.58512 C12.8233643,165.58512 0.880755466,153.641679 0.880755466,138.909052 C0.880755466,124.175594 12.8233643,112.232985 27.556823,112.232985 C42.2902817,112.232985 54.2328906,124.175594 54.2328906,138.909052" id="Fill-180" fill="#4379B3"></path>
                        <path d="M34.0778982,142.857573 C32.8546145,142.857573 31.749418,143.353206 30.9477555,144.153206 L25.2196941,140.230548 C25.3693821,139.786474 25.4691742,139.318283 25.4691742,138.822649 C25.4691742,138.370259 25.3810246,137.941985 25.2554529,137.530343 L31.0525371,133.752383 C31.8458836,134.495834 32.9045105,134.959867 34.0778982,134.959867 C36.5261289,134.959867 38.5111583,132.974837 38.5111583,130.526607 C38.5111583,128.078376 36.5261289,126.092515 34.0778982,126.092515 C31.6296676,126.092515 29.6438066,128.078376 29.6438066,130.526607 C29.6438066,131.041367 29.7485882,131.527853 29.9099186,131.987728 L24.1910048,135.714128 C23.3876791,134.898328 22.2716718,134.389389 21.0350825,134.389389 C18.5868519,134.389389 16.6018224,136.374418 16.6018224,138.822649 C16.6018224,141.271711 18.5868519,143.256741 21.0350825,143.256741 C22.227597,143.256741 23.3053507,142.779402 24.1028552,142.013499 L29.8691702,145.962767 C29.7361142,146.38522 29.6438066,146.825968 29.6438066,147.291664 C29.6438066,149.739895 31.6296676,151.724924 34.0778982,151.724924 C36.5261289,151.724924 38.5111583,149.739895 38.5111583,147.291664 C38.5111583,144.843434 36.5261289,142.857573 34.0778982,142.857573" id="Fill-182" fill="#FFFFFF"></path>
                        <path d="M292.435089,102.605384 C292.435089,115.417847 282.048403,125.804532 269.235941,125.804532 C256.421815,125.804532 246.03513,115.417847 246.03513,102.605384 C246.03513,89.7929217 256.421815,79.4062366 269.235941,79.4062366 C282.048403,79.4062366 292.435089,89.7929217 292.435089,102.605384" id="Fill-184" fill="#20B2BB"></path>
                        <path d="M274.906539,106.039809 C273.843754,106.039809 272.880761,106.470578 272.184712,107.165796 L267.202596,103.754572 C267.333157,103.367878 267.419643,102.961226 267.419643,102.530457 C267.419643,102.13711 267.342304,101.763722 267.233365,101.406965 L272.275356,98.1213134 C272.965584,98.7674667 273.885334,99.1707927 274.906539,99.1707927 C277.036267,99.1707927 278.762668,97.4443909 278.762668,95.3154947 C278.762668,93.1857669 277.036267,91.4593651 274.906539,91.4593651 C272.776811,91.4593651 271.050409,93.1857669 271.050409,95.3154947 C271.050409,95.7628956 271.141885,96.1853484 271.282426,96.5861797 L266.308625,99.8269252 C265.60925,99.1175703 264.638773,98.6751591 263.563514,98.6751591 C261.434617,98.6751591 259.708216,100.401561 259.708216,102.530457 C259.708216,104.660185 261.434617,106.386587 263.563514,106.386587 C264.600519,106.386587 265.537732,105.971618 266.230455,105.305507 L271.246667,108.740015 C271.130243,109.106751 271.050409,109.490118 271.050409,109.895939 C271.050409,112.024835 272.776811,113.751237 274.906539,113.751237 C277.036267,113.751237 278.762668,112.024835 278.762668,109.895939 C278.762668,107.766211 277.036267,106.039809 274.906539,106.039809" id="Fill-186" fill="#FFFFFF"></path>
                        <path d="M422.58782,14.3425699 C422.58782,22.0614819 416.330029,28.3201041 408.610286,28.3201041 C400.891374,28.3201041 394.634415,22.0614819 394.634415,14.3425699 C394.634415,6.62365791 400.891374,0.365867262 408.610286,0.365867262 C416.330029,0.365867262 422.58782,6.62365791 422.58782,14.3425699" id="Fill-192" fill="#20B2BB"></path>
                        <path d="M413.678971,22.3589452 L408.856523,19.9040618 C408.762552,19.8549974 408.650286,19.8566606 408.557978,19.9073882 L403.801226,22.4878433 C403.567546,22.6150781 403.289792,22.4179889 403.331372,22.1552032 L404.176277,16.8096779 C404.192909,16.7057279 404.15715,16.6001147 404.080643,16.5269338 L400.156322,12.8005339 C399.963391,12.6175818 400.064846,12.2932578 400.326801,12.2516778 L405.672326,11.4034457 C405.776276,11.3868137 405.865257,11.3202857 405.910995,11.2238201 L408.243633,6.3406644 C408.358394,6.10116357 408.698519,6.09617397 408.818269,6.33318 L411.276479,11.1547973 C411.324712,11.2495997 411.416188,11.3136329 411.520969,11.3269385 L416.885621,12.0362934 C417.15007,12.0712206 417.25901,12.3938814 417.071068,12.5809914 L413.245708,16.4088466 C413.170864,16.4836906 413.1376,16.5901355 413.155895,16.6940855 L414.14051,22.0154944 C414.188742,22.2766168 413.915978,22.4803589 413.678971,22.3589452" id="Fill-194" fill="#FFFFFF"></path>
                    </g>
                    <g id="Group-199" transform="translate(317.082837, 135.936034)">
                        <mask id="mask-4" fill="white">
                            <use xlink:href="#path-3"></use>
                        </mask>
                        <g id="Clip-198"></g>
                        <path d="M0.440748045,14.9438535 C0.440748045,22.8914556 6.88315391,29.334693 14.8299243,29.334693 L14.8299243,29.334693 C22.7783579,29.334693 29.2215954,22.8914556 29.2215954,14.9438535 L29.2215954,14.9438535 C29.2215954,6.99708312 22.7783579,0.553845657 14.8299243,0.553845657 L14.8299243,0.553845657 C6.88315391,0.553845657 0.440748045,6.99708312 0.440748045,14.9438535" id="Fill-197" fill="#4379B3" mask="url(#mask-4)"></path>
                    </g>
                    <g id="Group-259" transform="translate(0.656006, 80.426802)">
                        <polygon id="Fill-200" fill="#FFFFFF" points="329.354471 76.2843484 324.355722 71.2856003 327.211437 68.4298856 329.354471 70.5737506 335.302906 64.6219888 338.159452 67.4777035"></polygon>
                        <path d="M303.28869,16.8908115 C303.28869,25.8762504 296.004705,33.1602356 287.019266,33.1602356 C278.033827,33.1602356 270.749842,25.8762504 270.749842,16.8908115 C270.749842,7.9053726 278.033827,0.621387446 287.019266,0.621387446 C296.004705,0.621387446 303.28869,7.9053726 303.28869,16.8908115" id="Fill-206" fill="#4379B3"></path>
                        <path d="M290.916227,13.5076129 C289.791072,12.7849524 288.455522,12.3608364 287.018517,12.3608364 C285.582344,12.3608364 284.246794,12.7849524 283.122471,13.5076129 L283.122471,12.6801708 C283.122471,10.5313162 284.869663,8.78246121 287.018517,8.78246121 C289.168204,8.78246121 290.916227,10.5313162 290.916227,12.6801708 L290.916227,13.5076129 Z M288.305834,22.070599 L285.732864,22.070599 L285.987333,19.7379607 C285.690452,19.4610379 285.500847,19.0685227 285.500847,18.6302694 C285.500847,17.7920165 286.181096,17.1125993 287.018517,17.1125993 C287.857602,17.1125993 288.537851,17.7920165 288.537851,18.6302694 C288.537851,19.0685227 288.348246,19.4610379 288.051365,19.7379607 L288.305834,22.070599 Z M292.740758,15.1824555 L292.740758,12.6801708 C292.740758,9.52508008 290.173608,6.95876222 287.018517,6.95876222 C283.86509,6.95876222 281.29794,9.52508008 281.29794,12.6801708 L281.29794,15.1824555 C280.355737,16.4032444 279.788586,17.9292305 279.788586,19.5915991 C279.788586,23.5849427 283.026005,26.8223619 287.018517,26.8223619 C291.012693,26.8223619 294.250112,23.5849427 294.250112,19.5915991 C294.250112,17.9292305 293.683792,16.4024128 292.740758,15.1824555 L292.740758,15.1824555 Z" id="Fill-208" fill="#FFFFFF"></path>
                        <polygon id="Fill-210" fill="#FFCEBD" points="51.9429694 439.009185 64.6523135 439.009185 64.6523135 416.042054 51.9429694 416.042054"></polygon>
                        <polygon id="Fill-212" fill="#FFCEBD" points="17.7494034 421.010283 9.84338134 413.461017 23.3859887 399.278078 31.2920107 406.826512"></polygon>
                        <polygon id="Fill-213" fill="#5B6087" points="56.3141089 352.823982 14.579427 405.670504 25.9390842 414.807295 65.2039138 381.469279"></polygon>
                        <polygon id="Fill-214" fill="#4B517A" points="50.016152 363.68917 39.8914209 403.837159 65.2044959 381.469611 56.3138594 352.824315 49.6993123 361.197696"></polygon>
                        <path d="M77.2518864,278.698726 L77.2518864,357.515288 L65.2044959,429.131024 L50.1392288,429.131024 L52.9799747,363.689087 L46.9292524,316.028423 L39.1313384,302.163154 C37.0140846,298.400164 36.1816529,294.050064 36.7587834,289.77065 L37.5454771,283.925333 L77.2518864,278.698726 Z" id="Fill-215" fill="#5B6087"></path>
                        <path d="M50.1395614,430.319157 L50.1395614,442.29086 L93.8501251,442.29086 L93.8501251,437.095783 C93.8501251,435.099466 92.5145754,433.314797 90.504598,432.624807 L69.4019142,426.29086 L66.4389231,430.319157 L50.1395614,430.319157 Z" id="Fill-216" fill="#5579AA"></path>
                        <polygon id="Fill-217" fill="#4D5068" points="50.1392288 442.503156 93.8497925 442.503156 93.8497925 439.503156 50.1392288 439.503156"></polygon>
                        <path d="M11.8632548,405.670338 L0.00962716444,415.054945 L30.1368351,443.454088 L41.1264302,443.454088 L41.1264302,439.934756 C41.1264302,438.058667 39.6054336,436.539333 37.7301755,436.539333 L34.5817375,436.539333 L28.6549237,416.78301 L20.5676129,415.548915 L11.8632548,405.670338 Z" id="Fill-218" fill="#5579AA"></path>
                        <path d="M32.1132158,439.502823 L3.36147447,412.400145 L0.0101261245,415.055444 L30.1365024,443.453755 L41.1269292,443.453755 L41.1269292,439.935255 C41.1269292,439.786399 41.1019812,439.645027 41.0828544,439.502823 L32.1132158,439.502823 Z" id="Fill-219" fill="#4D5068"></path>
                        <path d="M57.282923,298.977045 C58.2109887,304.861447 57.7328186,310.896369 58.6026723,316.789919 C60.2533985,327.978266 66.7099416,338.398215 66.2034971,349.697166 C66.0405035,353.323774 65.1565126,356.872211 64.5361389,360.448923 C62.5918579,371.656398 63.2380112,383.141626 62.2899871,394.477167 C61.3186782,406.072999 58.6750215,417.536606 58.1078703,429.130774 L65.2039138,429.130774 L77.2521358,357.51587 L77.2521358,278.698477 L50.2018483,282.258557 C53.8716994,287.147534 56.3299093,292.938797 57.282923,298.977045" id="Fill-220" fill="#4B517A"></path>
                        <path d="M34.275875,219.156493 L24.3906448,235.91074 C22.7199602,238.742338 23.2538475,242.354809 25.6704773,244.582666 L42.0388618,259.672881 L50.3706631,249.096591 L34.275875,219.156493 Z" id="Fill-221" fill="#2BC9D3"></path>
                        <polygon id="Fill-222" fill="#F1F2F2" points="116.151145 185.665047 120.791473 192.851735 118.571932 194.356099 114.174431 189.181884"></polygon>
                        <path d="M112.828736,194.311609 L109.207949,195.324498 L110.05535,198.362333 L113.676136,197.354433 C114.514389,197.119922 115.006697,196.245079 114.775512,195.408489 C114.540169,194.572731 113.66782,194.082919 112.828736,194.311609" id="Fill-231" fill="#BF411A"></path>
                        <path d="M114.26782,199.477425 L110.647033,200.486156 L111.49277,203.528149 L115.11522,202.51526 C115.95181,202.282412 116.445781,201.416717 116.211269,200.575137 C115.978421,199.73439 115.106073,199.243746 114.26782,199.477425" id="Fill-232" fill="#BF411A"></path>
                        <path d="M77.8040688,183.616899 C77.8040688,183.616899 73.0057363,188.99652 73.1512663,193.503792 L73.1479399,198.155763 L60.066039,198.155763 C60.066039,198.155763 62.6406729,177.298402 60.066039,175.620233 L68.9350539,175.620233 L77.8040688,183.616899 Z" id="Fill-235" fill="#EDC1B1"></path>
                        <path d="M68.9350539,175.620066 L67.7126018,175.620066 L68.1200858,180.698648 C68.1200858,180.698648 68.3163434,185.869537 68.4618735,190.37681 L68.4585471,195.029612 L60.411153,195.029612 C60.2190534,196.913186 60.066039,198.156429 60.066039,198.156429 L73.1479399,198.156429 L73.1512663,193.503626 C73.0065679,188.996354 77.8040688,183.616733 77.8040688,183.616733 L68.9350539,175.620066 Z" id="Fill-236" fill="#A58877"></path>
                        <path d="M88.4208576,160.02349 C87.4537067,157.954469 86.2279282,155.991061 84.2212772,155.007278 C82.7393658,154.281291 81.0329225,154.201458 79.3838595,154.174846 C77.1876037,154.139088 74.9406202,154.180668 72.878252,154.934097 C69.2591285,156.25551 66.7560122,159.544488 64.7634984,162.842614 C64.0741019,163.982738 63.4171379,165.149473 62.9397994,166.392715 C60.9389696,171.610174 62.5630846,178.003515 66.8100662,181.63345 C68.2986304,182.905798 70.0391693,183.840516 71.7639079,184.763592 C73.1443641,185.503716 74.548105,186.251325 76.0815756,186.56567 C77.7505969,186.906626 79.4903043,186.713695 81.1401989,186.292073 C82.682817,185.898726 84.20714,185.286669 85.3896753,184.223884 C86.7501731,183.002263 87.5576567,181.280851 88.1364504,179.547797 C88.9896721,176.993953 89.4146197,176.103309 89.5293805,173.421399 C89.5410229,173.160276 92.6753237,172.898322 92.6803133,172.6372 C92.7310409,170.151547 89.3971561,165.884607 89.0262625,163.404776 C88.8557845,162.270473 88.6503793,161.141992 88.4208576,160.02349" id="Fill-237" fill="#EDC1B1"></path>
                        <path d="M56.6689526,172.167845 C56.6622998,171.801941 56.6706158,171.434374 56.6864162,171.072627 C56.7579339,169.44186 56.9716551,167.79446 56.688911,166.187809 C56.4427574,164.782404 55.824047,163.466813 55.5155233,162.073883 C55.0672909,160.0506 55.2860017,157.944157 55.5770617,155.891768 C55.9080386,153.554972 56.3662502,151.144163 57.7425484,149.228156 C59.4614657,146.83398 62.5849557,145.533357 65.4947244,145.999053 C65.9720628,146.075561 66.4502329,146.196143 66.9308977,146.154563 C67.4390054,146.110488 67.9130174,145.890114 68.3861978,145.699677 C71.9995002,144.246872 76.0602034,144.429824 79.9063538,145.044376 C81.6793252,145.328784 83.4589494,145.705498 85.07558,146.483045 C88.5017723,148.132939 90.8327474,151.376179 93.014866,154.490522 C93.572038,155.286363 94.1408525,156.107152 94.3695425,157.050187 C94.597401,157.994053 94.4119541,159.104239 93.6601877,159.720455 C93.293452,160.022326 92.8294192,160.178666 92.3728707,160.306733 C91.0589426,160.675963 89.6493804,160.858915 88.3354523,160.493011 C87.5678854,160.27929 86.8610254,159.885112 86.0984481,159.656422 C84.7055179,159.238127 83.214459,159.387815 81.769138,159.539998 C81.0589516,159.614842 80.3021955,159.709644 79.758329,160.171182 C78.8951281,160.903822 78.9167497,162.215255 78.9824461,163.345399 C79.0830698,165.06598 79.1171654,166.81234 78.7288081,168.491341 C78.3404509,170.171173 77.4863976,171.79612 76.098457,172.817324 C75.8805778,172.978655 75.6402454,173.12668 75.3724702,173.16327 C74.7645705,173.24643 74.2123881,172.708385 74.0552156,172.115454 C73.7408708,170.918781 74.4568785,169.349552 74.4809949,168.099657 C74.5026165,166.968681 74.6306829,165.976582 73.4414948,165.634795 C71.4647814,165.064317 69.0323511,165.529181 67.9188386,167.259741 C66.8735173,168.885519 67.2743485,171.031047 66.7446193,172.890505 C66.177468,174.884682 64.5308999,176.448922 62.6406729,177.298817 C60.6739387,178.181145 58.6839197,177.833536 57.5230059,175.827717 C56.8884951,174.729173 56.6905742,173.449341 56.6689526,172.167845" id="Fill-238" fill="#000000"></path>
                        <path d="M61.0161421,181.714946 C61.0161421,181.714946 60.026538,182.211412 58.3990966,182.995611 C44.6286308,189.630948 35.2057702,202.967318 33.9492225,218.199737 C33.6340461,222.025097 33.5217801,226.312827 33.6914265,231.110328 C33.7363329,232.408456 36.7292616,248.499918 36.8972448,249.787235 C37.5093025,254.479954 33.3945452,295.160999 33.3945452,295.160999 C56.7633393,286.247077 73.7038646,304.430013 84.0539593,297.114427 L81.0127978,218.736951 C80.8797417,214.926559 80.2344201,211.151095 79.095128,207.513676 L74.4439887,192.66213 L61.0161421,181.714946 Z" id="Fill-239" fill="#2BC9D3"></path>
                        <path d="M64.1412121,202.773805 L86.1894251,222.783766 C87.3628128,223.847383 89.179859,223.740106 90.2193591,222.544265 L107.969863,202.128483 L104.897101,198.479422 C103.970698,197.379215 103.503339,195.963 103.593152,194.526827 C103.72205,192.494396 105.043462,190.731404 106.957806,190.038681 L107.722046,189.760927 L108.065497,192.821215 L111.698758,191.760925 L116.221831,186.847832 C117.310395,185.326835 119.238876,184.654902 121.037627,185.171326 L122.250931,185.519766 L123.416003,187.182966 L122.809766,189.044087 L123.868393,191.209574 L123.38856,194.198345 L123.754464,195.10562 C124.246771,196.330567 124.268393,197.69356 123.813508,198.932644 L122.408935,202.757173 C122.157792,203.442411 121.691264,204.027026 121.080038,204.423699 L115.941581,207.756753 L96.3241354,241.699342 C94.2359876,245.311812 89.5149939,246.382082 86.0730011,244.023664 L50.7008915,219.774205 C45.2339525,216.027015 44.36992,208.297293 48.8755293,203.434927 C52.9229269,199.067363 59.7312368,198.772145 64.1412121,202.773805" id="Fill-240" fill="#EDC1B1"></path>
                        <path d="M123.754048,195.10587 L123.388976,194.198594 L123.488768,193.577389 C122.307896,194.496307 121.417252,195.926659 120.881702,197.35618 C120.009353,199.683828 119.678376,202.247652 118.334511,204.339126 C117.449688,205.717087 116.181498,206.796504 115.016426,207.947438 C107.698346,215.180696 104.031821,225.756986 95.8230963,231.959059 C93.1860924,233.951573 89.9586525,235.663006 88.857614,238.779843 C84.8842288,234.94783 80.4451475,231.638062 76.0202035,228.339104 C73.0114744,226.09711 69.9586705,223.828505 66.4667817,222.453039 C63.727491,221.373622 60.7803003,220.870504 58.0784316,219.700442 C52.357023,217.223106 48.4177334,211.507518 47.4306241,205.390268 C44.6605642,210.176958 45.9204384,216.497951 50.7004757,219.774455 L86.0725853,244.023082 C89.5145781,246.382331 94.2364034,245.312062 96.3245512,241.69876 L115.941166,207.757002 L121.079623,204.423949 C121.69168,204.027276 122.157376,203.441829 122.409351,202.757422 L123.813092,198.932894 C124.267977,197.692978 124.247187,196.330817 123.754048,195.10587" id="Fill-241" fill="#A58877"></path>
                        <path d="M55.8138183,293.559503 C55.0146506,289.369902 52.9082076,285.263461 51.4379386,281.424795 C50.3892909,278.685504 49.326506,275.879685 49.2541568,272.947463 C49.168502,269.436448 50.5040517,266.072625 51.5460466,262.719614 C52.5880415,259.366602 53.3406396,255.687604 52.1198507,252.395299 C50.938147,249.211934 47.9543659,246.277217 48.8624732,243.004871 C49.5061316,240.682212 51.9044663,239.341672 54.1680817,238.51423 C54.959765,238.224002 55.8678723,237.861424 56.1181839,237.057267 C56.554774,235.654358 54.7418858,234.744587 53.6134044,233.806542 C51.6932398,232.211533 51.432949,229.406546 51.3855478,226.911746 C51.2757766,221.198653 51.5152774,215.478076 52.1015555,209.793258 C52.6554011,204.422785 52.7676672,198.706366 54.2271253,193.48558 C54.9564386,190.876851 56.1106995,188.273943 58.1855417,186.532572 C59.6358523,185.31511 61.5368901,184.491825 62.9123566,183.260226 L61.8786777,182.418646 L51.5776474,187.083923 C41.5776564,194.372066 34.9855625,205.638584 33.9493888,218.199903 C33.6342124,222.025264 33.5219464,226.312994 33.6907612,231.110495 C33.7364992,232.408622 36.7294279,248.499252 36.8974111,249.787401 C37.5094688,254.48012 33.3947116,295.161165 33.3947116,295.161165 C41.6791116,292.001085 49.15187,292.252228 55.8138183,293.559503" id="Fill-242" fill="#10B1BB"></path>
                        <path d="M106.91581,202.002246 L90.2197749,222.544432 C89.1802748,223.740273 87.362397,223.847549 86.1890093,222.783101 L64.1407963,202.773971 C59.7316526,198.772312 52.9225111,199.06753 48.8751135,203.435093 C44.3695042,208.296627 45.2335367,216.02635 50.7004757,219.774372 L86.0734169,244.022999 C89.5145781,246.382248 94.2364034,245.311979 96.3245512,241.698676 L115.638463,209.421782 L106.91581,202.002246 Z" id="Fill-243" fill="#2BC9D3"></path>
                        <path d="M114.518797,208.469101 C107.535019,215.680737 103.84022,225.902765 95.8235953,231.959309 C93.1865914,233.951823 89.9591515,235.663256 88.858113,238.779261 C84.8838961,234.94808 80.4448149,231.63748 76.0198708,228.339354 C73.0119733,226.096528 69.9583378,223.828755 66.4672807,222.452457 C63.72799,221.373871 60.7807993,220.870753 58.0789306,219.700692 C52.3566904,217.222524 48.4182324,211.506936 47.4302915,205.390518 C44.6602316,210.177208 45.9209373,216.497368 50.7009746,219.774704 L86.0730843,244.023331 C89.515077,246.382581 94.2360707,245.312311 96.3242185,241.699009 L115.638962,209.422115 L114.518797,208.469101 Z" id="Fill-244" fill="#10B1BB"></path>
                        <polygon id="Fill-245" fill="#10B1BB" points="59.25631 179.65948 57.6355214 184.329747 77.3095162 208.457791 80.4878918 195.114768"></polygon>
                    </g>
                    <g id="Group-289" transform="translate(644.483683, 286.663639)">
                        <mask id="mask-6" fill="white">
                            <use xlink:href="#path-5"></use>
                        </mask>
                        <g id="Clip-288"></g>
                        <path d="M22.4997719,0.705196873 L0.0557172057,10.0848142 C4.00165961,12.4789909 1.75800258,23.2407276 5.32140895,24.8981066 L5.32140895,24.8981066 L28.3899953,16.2536237 C32.7608854,14.7658911 35.0827128,10.0016542 33.5625479,5.64240658 L33.5625479,5.64240658 C32.3600541,2.19292943 29.1301194,0.0590436061 25.703927,0.0590436061 L25.703927,0.0590436061 C24.6361525,0.0590436061 23.5500828,0.266112027 22.4997719,0.705196873" id="Fill-287" mask="url(#mask-6)"></path>
                    </g>
                    <path d="M363.44,38.7199999 C363.44,54.0284967 351.028497,66.4399997 335.72,66.4399997 C320.409875,66.4399997 308,54.0284967 308,38.7199999 C308,23.4098755 320.409875,11 335.72,11 C351.028497,11 363.44,23.4098755 363.44,38.7199999" id="Fill-292" fill="#4379B3"></path>
                    <path d="M350.57,36.0932144 C350.57,31.5274062 346.689116,27.8299999 341.902472,27.8299999 C339.477747,27.8299999 337.294336,28.7787802 335.720826,30.31385 C334.145664,28.7787802 331.9606,27.8299999 329.535874,27.8299999 C324.749231,27.8299999 320.87,31.5274062 320.87,36.0932144 C320.87,38.3154407 321.795594,40.3296288 323.294726,41.8174172 L335.684464,53.5699998 L348.386589,41.5620976 C348.525429,41.409221 348.882443,40.9758081 348.882443,40.9758081 C349.940265,39.6062232 350.57,37.9167008 350.57,36.0932144" id="Fill-294" fill="#FFFFFF"></path>
                    <path d="M664.030399,121.925075 C664.030399,130.140452 657.369282,136.800737 649.153905,136.800737 C640.938527,136.800737 634.279074,130.140452 634.279074,121.925075 C634.279074,113.709698 640.938527,107.049412 649.153905,107.049412 C657.369282,107.049412 664.030399,113.709698 664.030399,121.925075" id="Fill-296" fill="#4379B3"></path>
                    <path d="M645.998315,121.346032 C646.37503,119.34437 648.448209,118.213394 650.313488,118.931897 C651.730534,119.477426 652.592904,121.010065 652.312654,122.502787 C651.93594,124.504449 649.861929,125.634593 647.99665,124.916922 C646.580435,124.371393 645.717234,122.837922 645.998315,121.346032 M655.012028,123.702786 L656.787495,123.701123 C657.146746,123.701123 657.437806,123.409231 657.437806,123.04998 L657.436143,120.784702 C657.435311,120.426282 657.143419,120.13439 656.785,120.135222 L655.394564,120.136053 C655.164211,120.136053 654.96629,119.987197 654.885625,119.771813 C654.836561,119.642088 654.782507,119.514017 654.725958,119.388445 C654.630324,119.178882 654.66442,118.93356 654.827413,118.769735 L655.810364,117.787615 C656.064002,117.532314 656.064002,117.120672 655.810364,116.866202 L654.207871,115.265372 C653.953401,115.011734 653.540928,115.011734 653.28729,115.265372 L652.296854,116.256639 C652.141345,116.412148 651.906834,116.457055 651.703923,116.370568 C651.562551,116.309861 651.410368,116.248323 651.278976,116.197595 C651.072739,116.11693 650.93802,115.919009 650.93802,115.697804 L650.93802,114.294063 C650.93802,113.93398 650.646959,113.642088 650.287708,113.642088 L648.023261,113.642088 C647.663178,113.642088 647.371287,113.93398 647.371287,114.294063 L647.371287,115.683667 C647.371287,115.91402 647.223262,116.111109 647.007878,116.191774 C646.872327,116.243333 646.738439,116.299882 646.605383,116.359757 C646.396651,116.456223 646.151329,116.422128 645.987504,116.259965 L645.001227,115.279509 C644.746757,115.025871 644.334283,115.026703 644.080645,115.282004 L642.483973,116.888655 C642.231167,117.143125 642.231998,117.554767 642.486468,117.808405 L643.48023,118.797177 C643.636571,118.951855 643.681477,119.186366 643.594991,119.388445 C643.535116,119.529817 643.474409,119.682831 643.423681,119.814224 C643.343848,120.021293 643.145095,120.156012 642.924721,120.156012 L641.520149,120.159338 C641.160897,120.16017 640.869837,120.452893 640.870667,120.812144 L640.87649,123.076591 C640.877322,123.436674 641.169213,123.726903 641.529296,123.726071 L642.9189,123.722745 C643.149253,123.721913 643.347174,123.870769 643.428671,124.086154 C643.477735,124.215052 643.530958,124.343118 643.58917,124.469522 C643.684804,124.679085 643.650708,124.924407 643.487714,125.0874 L642.507258,126.072846 C642.25362,126.327316 642.254451,126.738958 642.508921,126.993428 L644.113078,128.591763 C644.368379,128.845401 644.780021,128.84457 645.034491,128.589268 L646.022431,127.597169 C646.178772,127.440829 646.412452,127.395091 646.615362,127.482409 C646.756734,127.542284 646.909749,127.602991 647.041142,127.65455 C647.247378,127.734383 647.382098,127.932304 647.382098,128.154342 L647.384592,129.558082 C647.384592,129.918165 647.677316,130.208394 648.036567,130.207564 L650.301014,130.203404 C650.660265,130.203404 650.951325,129.911512 650.950494,129.552261 L650.94883,128.161826 C650.947999,127.932304 651.096855,127.734383 651.31224,127.652887 C651.441969,127.603822 651.569204,127.5506 651.696439,127.493219 C651.906002,127.396754 652.150492,127.430849 652.313486,127.593843 L653.298101,128.575963 C653.55257,128.829601 653.965044,128.829601 654.218682,128.5743 L655.81868,126.971806 C656.071487,126.716505 656.071487,126.304863 655.817017,126.050393 L654.824918,125.061621 C654.669409,124.90528 654.624503,124.6716 654.711821,124.46869 C654.855688,124.130229 655.004544,123.726903 655.012028,123.702786" id="Fill-298" fill="#FFFFFF"></path>
                    <g id="Group-325" transform="translate(453.215663, 507.869262)">
                        <mask id="mask-8" fill="white">
                            <use xlink:href="#path-7"></use>
                        </mask>
                        <g id="Clip-324"></g>
                    </g>
                    <g id="Group-332" transform="translate(375.876856, 66.289616)">
                        <mask id="mask-10" fill="white">
                            <use xlink:href="#path-9"></use>
                        </mask>
                        <g id="Clip-331"></g>
                        <path d="M0.567982859,23.1999792 C0.567982859,36.0132733 10.9546679,46.3999584 23.767962,46.3999584 L23.767962,46.3999584 C36.5804246,46.3999584 46.9679412,36.0132733 46.9679412,23.1999792 L46.9679412,23.1999792 C46.9679412,10.3866851 36.5804246,-0.000831600086 23.767962,-0.000831600086 L23.767962,-0.000831600086 C10.9546679,-0.000831600086 0.567982859,10.3866851 0.567982859,23.1999792" id="Fill-330" fill="#4379B3" mask="url(#mask-10)"></path>
                    </g>
                    <g id="Group-345" transform="translate(231.218014, 34.994800)">
                        <path d="M170.520939,65.2448064 L162.712214,65.2448064 C160.917621,65.2448064 159.454837,63.7820218 159.454837,61.9865972 L159.454837,60.3184075 L164.091839,60.3184075 L164.091839,60.6086359 L170.520939,60.6086359 C171.756697,60.6086359 172.762101,59.6032314 172.762101,58.3666421 C172.762101,57.5616532 172.107632,56.9071839 171.304306,56.9071839 L165.548802,56.9071839 C162.18997,56.9071839 159.454837,54.1728828 159.454837,50.8107237 L159.454837,49.9749656 C159.454837,46.1803744 162.540073,43.0951381 166.333001,43.0951381 L174.140894,43.0951381 C175.936319,43.0951381 177.399103,44.5579227 177.399103,46.3525156 L177.399103,48.2477322 L172.762101,48.2477322 L172.762101,47.7313086 L166.333001,47.7313086 C165.097243,47.7313086 164.091839,48.7383763 164.091839,49.9749656 L164.091839,50.8107237 C164.091839,51.6157126 164.746308,52.2701818 165.548802,52.2701818 L171.304306,52.2701818 C174.663971,52.2701818 177.399103,55.0044829 177.399103,58.3666421 C177.399103,62.1587385 174.313036,65.2448064 170.520939,65.2448064" id="Fill-333" fill="#FFFFFF"></path>
                        <polygon id="Fill-335" fill="#FFFFFF" points="166.109134 68.1463422 170.745305 68.1463422 170.745305 40.8424166 166.109134 40.8424166"></polygon>
                        <path d="M29.7742879,14.8818578 C29.7742879,23.093077 23.1181608,29.7492041 14.9077731,29.7492041 C6.6965539,29.7492041 0.0404268175,23.093077 0.0404268175,14.8818578 C0.0404268175,6.67147015 6.6965539,0.0153430636 14.9077731,0.0153430636 C23.1181608,0.0153430636 29.7742879,6.67147015 29.7742879,14.8818578" id="Fill-337" fill="#20B2BB"></path>
                        <path d="M16.5165867,14.9451426 C16.5165867,14.3389061 16.3560879,13.8366196 16.0342586,13.4374516 C15.713261,13.037452 15.2924713,12.8370363 14.7710581,12.8370363 C14.2496448,12.8370363 13.8346764,13.037452 13.5261528,13.4374516 C13.2167975,13.8366196 13.0629515,14.3314217 13.0629515,14.9185314 C13.0629515,15.5064726 13.2167975,16.0179067 13.5261528,16.4536651 C13.8346764,16.8902552 14.2562976,17.1081344 14.7901849,17.1081344 C15.3215774,17.1081344 15.742367,16.8994028 16.0517222,16.4811079 C16.3610775,16.0636447 16.5165867,15.551379 16.5165867,14.9451426 M19.314921,17.6902544 C19.6425714,17.6902544 19.930305,17.429132 20.1789535,16.9085504 C20.4259387,16.3871371 20.5515103,15.7334994 20.5515103,14.9451426 C20.5515103,13.2362044 20.0608662,11.8216526 19.0787465,10.7006557 C18.0974584,9.58132201 16.7818671,9.02082355 15.1344673,9.02082355 C13.486236,9.02082355 12.099127,9.60793321 10.9723089,10.7829841 C9.84549079,11.9588667 9.28249753,13.3684288 9.28249753,15.0091758 C9.28249753,16.6515859 9.81139518,18.0170733 10.8725169,19.1089642 C11.9319754,20.1983603 13.2442403,20.74389 14.8068169,20.74389 C16.0309322,20.74389 17.1095175,20.2964891 18.0425728,19.3991926 L18.7876865,20.689836 C18.3020321,21.113952 17.6849848,21.4557396 16.9340499,21.7168621 C16.1822834,21.9763213 15.4729286,22.1068825 14.8068169,22.1068825 C12.7835339,22.1068825 11.0912277,21.4316232 9.72657198,20.0802731 C8.36357944,18.728923 7.68249896,17.0391116 7.68249896,15.0091758 C7.68249896,12.9800716 8.40016984,11.247017 9.83634319,9.81084363 C11.2716849,8.37550188 13.0014131,7.65616781 15.0255277,7.65616781 C17.0496423,7.65616781 18.7394537,8.34722748 20.0974566,9.72934682 C21.4537964,11.1106346 22.1332137,12.8312151 22.1332137,14.8919202 C22.1332137,16.2241435 21.8562908,17.2927496 21.3057716,18.0994017 C20.7544207,18.9052222 20.030097,19.3077166 19.1328005,19.3077166 C18.6729257,19.3077166 18.2521361,19.1688394 17.8704316,18.8894218 C17.4878956,18.6116673 17.2251099,18.2599005 17.0795799,17.8357845 C16.4134683,18.6964905 15.567731,19.1255962 14.5440313,19.1255962 C13.5195,19.1255962 12.6288563,18.7389022 11.8721002,17.9630193 C11.1145125,17.1871364 10.7361345,16.2033535 10.7361345,15.0091758 C10.7361345,13.8158296 11.0779221,12.8104251 11.762329,11.9912991 C12.4467359,11.1738362 13.3465271,10.7655205 14.4617029,10.7655205 C14.8375861,10.7655205 15.1951741,10.8461857 15.5336354,11.0108426 C15.8745914,11.1738362 16.1157554,11.334335 16.2604538,11.492339 L16.4982915,11.7285134 L16.4982915,10.9825682 L18.7702229,10.9825682 L18.7702229,16.7821472 C18.7702229,17.387552 18.9523433,17.6902544 19.314921,17.6902544" id="Fill-338" fill="#FFFFFF"></path>
                        <path d="M290.463167,22.2315836 C290.463167,32.8519483 281.85278,41.4623356 271.231584,41.4623356 C260.610387,41.4623356 252,32.8519483 252,22.2315836 C252,11.6103873 260.610387,3 271.231584,3 C281.85278,3 290.463167,11.6103873 290.463167,22.2315836" id="Fill-339" fill="#4379B3"></path>
                        <path d="M279.85,22.3643668 C279.85,19.8810212 277.759288,17.8699999 275.180625,17.8699999 C273.874375,17.8699999 272.698127,18.3860421 271.850445,19.2209674 C271.001873,18.3860421 269.824734,17.8699999 268.518485,17.8699999 C265.939821,17.8699999 263.85,19.8810212 263.85,22.3643668 C263.85,23.5730369 264.348636,24.6685549 265.15625,25.4777638 L271.830856,31.8699999 L278.673752,25.3388954 C278.748547,25.2557457 278.940879,25.0200122 278.940879,25.0200122 C279.510749,24.2750942 279.85,23.3561621 279.85,22.3643668" id="Fill-294" fill="#FFFFFF"></path>
                        <path d="M360.739401,24.9570931 C360.739401,32.7633231 354.410924,39.0909682 346.604694,39.0909682 C338.798464,39.0909682 332.470819,32.7633231 332.470819,24.9570931 C332.470819,17.1508631 338.798464,10.8223865 346.604694,10.8223865 C354.410924,10.8223865 360.739401,17.1508631 360.739401,24.9570931" id="Fill-342" fill="#4379B3"></path>
                        <path d="M346.604611,24.4267818 C345.457003,24.4267818 344.526442,23.4970529 344.526442,22.3494447 C344.526442,21.201005 345.457003,20.2712761 346.604611,20.2712761 C347.752219,20.2712761 348.682779,21.201005 348.682779,22.3494447 C348.682779,23.4970529 347.752219,24.4267818 346.604611,24.4267818 M346.604611,17.4180562 C343.881952,17.4180562 341.674054,19.6259545 341.674054,22.3494447 C341.674054,25.0721034 346.604611,32.4957974 346.604611,32.4957974 C346.604611,32.4957974 351.535168,25.0721034 351.535168,22.3494447 C351.535168,19.6259545 349.327269,17.4180562 346.604611,17.4180562" id="Fill-343" fill="#FFFFFF"></path>
                    </g>
                    <g id="Group-367" transform="translate(347.787635, 231.214453)">
                        <mask id="mask-12" fill="white">
                            <use xlink:href="#path-11"></use>
                        </mask>
                        <g id="Clip-366"></g>
                        <path d="M0.116424012,35.4220056 C0.116424012,47.7604561 6.46818547,58.6086792 16.0748297,64.8955759 L16.0748297,64.8955759 L16.0748297,81.4128168 L54.5704292,81.4128168 L54.5704292,64.8964075 C64.1770734,58.6086792 70.5288349,47.7604561 70.5288349,35.4220056 L70.5288349,35.4220056 C70.5288349,15.9791956 54.7666868,0.217047622 35.3222136,0.217047622 L35.3222136,0.217047622 C15.8794036,0.217047622 0.116424012,15.9791956 0.116424012,35.4220056" id="Fill-365" fill="#20B2BB" mask="url(#mask-12)"></path>
                    </g>
                    <g id="Group-380" transform="translate(359.430036, 252.836055)">
                        <polygon id="Fill-368" fill="#1A3655" points="45.4234104 62.6832702 32.6217587 73.3884581 13.5689691 73.3884581 1.93737872 62.6832702 1.93737872 45.8624952 45.4234104 45.8624952"></polygon>
                        <path d="M46.7682741,50.626649 L0.496382091,50.626649 C0.249396866,50.626649 0.0456548447,50.4237386 0.0456548447,50.1750901 L0.0456548447,47.8507679 C0.0456548447,47.6021195 0.249396866,47.399209 0.496382091,47.399209 L46.7682741,47.399209 C47.0160909,47.399209 47.2190013,47.6021195 47.2190013,47.8507679 L47.2190013,50.1750901 C47.2190013,50.4237386 47.0160909,50.626649 46.7682741,50.626649" id="Fill-370" fill="#3F5E7F"></path>
                        <path d="M46.7682741,56.0150017 L0.496382091,56.0150017 C0.249396866,56.0150017 0.0456548447,55.8120913 0.0456548447,55.5642745 L0.0456548447,53.2399522 C0.0456548447,52.9913038 0.249396866,52.7883934 0.496382091,52.7883934 L46.7682741,52.7883934 C47.0160909,52.7883934 47.2190013,52.9913038 47.2190013,53.2399522 L47.2190013,55.5642745 C47.2190013,55.8129229 47.0160909,56.0150017 46.7682741,56.0150017" id="Fill-372" fill="#3F5E7F"></path>
                        <path d="M46.7682741,61.4041861 L0.496382091,61.4041861 C0.249396866,61.4041861 0.0456548447,61.2012757 0.0456548447,60.9534588 L0.0456548447,58.6291366 C0.0456548447,58.3804882 0.249396866,58.1775778 0.496382091,58.1775778 L46.7682741,58.1775778 C47.0160909,58.1775778 47.2190013,58.3804882 47.2190013,58.6291366 L47.2190013,60.9534588 C47.2190013,61.2012757 47.0160909,61.4041861 46.7682741,61.4041861" id="Fill-374" fill="#3F5E7F"></path>
                        <path d="M31.0067913,79.207247 L14.7905896,79.207247 C13.8142911,79.207247 13.0226079,78.4155638 13.0226079,77.4392653 L13.0226079,72.8845916 L32.7756047,72.8845916 L32.7756047,77.4392653 C32.7756047,78.4155638 31.9839214,79.207247 31.0067913,79.207247" id="Fill-376" fill="#3F5E7F"></path>
                        <path d="M32.8592637,9.35367144 C32.8592637,4.28340572 28.749496,0.174469698 23.6800619,0.174469698 C18.6106278,0.174469698 14.5016918,4.28340572 14.5016918,9.35367144 C14.5016918,12.0048125 15.6418155,14.3740412 17.4389033,16.0497153 L15.8996115,30.1536528 L31.4605123,30.1536528 L29.9212206,16.0497153 C31.7183083,14.3740412 32.8592637,12.0048125 32.8592637,9.35367144" id="Fill-378" fill="#FFFFFF"></path>
                    </g>
                </g>
            </g>
        </g>
    </g>
</svg>